<svg version="1.1" id="Layer_1" xmlns:sketch="http://www.bohemiancoding.com/sketch/ns" xmlns="http://www.w3.org/2000/svg" xmlns:xlink="http://www.w3.org/1999/xlink" x="0px" y="0px" viewBox="-195.4 -68.2 931.5 247.9" style="enable-background:new -195.4 -68.2 931.5 247.9;" xml:space="preserve">
 <style type="text/css">
  .st0{fill:#B8FF6E;}
 </style>
 <g>
  <g id="updated" transform="translate(-130.000000, -301.000000)">
   <g transform="translate(130.000000, 301.000000)">
    <path class="st0" d="M-71.4,44.1l-30.3-30.3l30.3-30.3l30.3,30.3L-71.4,44.1z M19.4,13.8l26.9-26.9c8.4-8.4,8.4-21.9,0-30.3
				c-8.4-8.4-21.9-8.4-30.3,0l-26.9,26.9l-45.4-45.4c-8.4-8.4-21.9-8.4-30.3,0l-60.6,60.6c-8.4,8.4-8.4,21.9,0,30.3l75.7,75.7
				l60.5-60.5L0.9,55.8l-72.3,72.3l-87.4-87.4c-8.4-8.4-21.9-8.4-30.3,0c-8.4,8.4-8.4,21.9,0,30.3l102.5,102.5
				c8.4,8.4,21.9,8.4,30.3,0L46.3,70.9c8.4-8.4,8.4-21.9,0-30.3L19.4,13.8z">
    </path>
    <path class="st0" d="M279.4,50v78.1h-18.8v-22.9c-7.8,16.1-24.2,26-47.3,26c-41.1,0-67.1-32-67.1-75.4
				c0-43.4,25.6-75.4,67.5-75.4c30.4,0,50,14.7,59.1,35.1L253,25.4C246.4,9.9,233.6,0,213.3,0c-27.9,0-45.4,21.5-45.4,55.8
				c0,34.7,19,55.8,48.5,55.8c22.5,0,41.9-13.8,43.4-42.7h-54.1V50H279.4z">
    </path>
    <path class="st0" d="M316.4,65.9h62.6c-1.4-14.7-12.2-28.1-31.4-28.1C329.6,37.8,319,49,316.4,65.9 M398.1,81.8h-82.2
				c2.5,19,14.9,31.4,32,31.4c13,0,20.4-6,25.4-14.9l17.6,10.1c-10.5,17.8-26.6,22.7-43.2,22.7c-30.1,0-52-22.3-52-55.8
				c0-32.2,20.4-55.3,52.4-55.3c29.1,0,50.6,21.3,50.6,51.4C398.7,76,398.3,79.9,398.1,81.8">
    </path>
    <path id="Fill-8" class="st0" d="M415-16.5h19.8v144.5H415V-16.5z">
    </path>
    <path class="st0" d="M522.2,87.4v-5.8h-28.1c-16.5,0-24,6.6-24,16.1c0,9.5,9.3,15.9,22.9,15.9C507.1,113.6,522.2,107,522.2,87.4
				L522.2,87.4z M552.8,111.1v16.9h-8.1c-12,0-18.4-4.3-20-13.8c-5.4,9.3-16.9,16.3-34.1,16.3c-20.6,0-40.5-9.1-40.5-32.4
				c0-22.5,19.6-32.6,41.7-32.6h30.4v-5.6c0-14.7-9.7-21.9-23.7-21.9c-13,0-20.9,6.8-24.8,15.3l-18-10.5
				c7.2-13.2,22.1-22.7,42.3-22.7c27.3,0,44,15.3,44,37.2v45.4c0,6.4,2.3,8.5,8.7,8.5H552.8z">
    </path>
    <path class="st0" d="M593.5,40.1v56.4c0,11.1,3.5,14.9,16.1,14.9h14v16.7h-19.4c-20,0-30.6-9.1-30.6-28.3V40.1h-20.9V23.4h20.9
				v-39.8h19.8v39.8h30.1v16.7H593.5z">
    </path>
    <path class="st0" d="M716.1,75.6c0-22.7-13.2-37.6-33.2-37.6c-20.2,0-33.7,14.9-33.7,37.6c0,23.1,13.4,37.8,33.7,37.8
				C702.9,113.4,716.1,98.7,716.1,75.6 M629.2,75.6c0-34.5,22.9-55.5,53.7-55.5c30.4,0,53.3,21.1,53.3,55.5
				c0,34.7-22.9,55.8-53.3,55.8C652.1,131.4,629.2,110.3,629.2,75.6">
    </path>
   </g>
  </g>
 </g>
</svg>