<?xml version="1.0" encoding="utf-8"?>
<!-- Generator: Adobe Illustrator 25.2.1, SVG Export Plug-In . SVG Version: 6.00 Build 0)  -->
<svg version="1.1" id="Layer_1" xmlns="http://www.w3.org/2000/svg" xmlns:xlink="http://www.w3.org/1999/xlink" x="0px" y="0px"
	 viewBox="0 0 927.7 259.4" style="enable-background:new 0 0 927.7 259.4;" xml:space="preserve">
<style type="text/css">
	.st0{fill:#B8FF6E;}
	.st1{fill:none;}
</style>
<g>
	<g>
		<path class="st0" d="M354.4,96.2c-2.3-3-5.2-5.3-8.6-6.8c-3.5-1.8-7.4-2.8-11.3-2.6H298v86.1h19.6v-27.9h17.3
			c3.9,0.1,7.7-0.7,11.3-2.2c3.3-1.5,6.3-3.7,8.6-6.4c2.4-2.8,4.3-6,5.6-9.4c1.2-3.5,1.8-7.2,1.9-10.9c0-3.6-0.8-7.2-2.3-10.5
			C358.9,102.2,356.7,99.2,354.4,96.2z M340.1,124.8c-1.5,1.8-3.7,2.9-6,3h-16.2v-23.7h15.4c1.2-0.1,2.4,0.1,3.4,0.8
			c1.1,0.8,2.3,1.1,3,2.2c1.1,1,1.9,2.3,2.3,3.8c0.5,1.7,0.7,3.5,0.8,5.3C342.8,119.9,342,122.9,340.1,124.8z"/>
		<path class="st0" d="M427,136.4c1.8-1.7,3.3-3.8,4.5-6c1.2-2.1,2.1-4.4,2.6-6.8c0.8-2.4,1.2-5,1.1-7.5c0-3.6-0.8-7.2-2.3-10.5
			c-1.4-3.5-3.4-6.7-6-9.4c-2.5-2.9-5.5-5.2-9-6.8c-3.5-1.8-7.4-2.7-11.3-2.6H368v86.1h20.3v-27.9H401l17.3,27.8h22.2l-19.5-32
			C423.3,139.8,425.3,138.2,427,136.4z M412,124.4c-1.3,2.1-3.6,3.3-6,3.4h-18.1l-0.4-23.3h17.7c2.5-0.1,4.8,1.1,6.4,3
			c2,2.3,3.1,5.2,3,8.3C414.6,119.5,413.8,122.1,412,124.4L412,124.4z"/>
		<rect x="445.4" y="86.8" class="st0" width="19.9" height="85.8"/>
		<polygon class="st0" points="529.7,137.2 489.8,86.8 474.4,86.8 474.4,172.5 494.3,172.5 494.3,123.6 533.8,172.5 549.6,172.5 
			549.6,86.8 529.7,86.8 		"/>
		<polygon class="st0" points="554.5,104.1 580.8,104.1 580.8,172.5 600.8,172.5 600.8,104.1 626.7,104.1 626.7,86.8 554.5,86.8 		
			"/>
		<polygon class="st0" points="631.6,172.5 651.6,172.5 651.6,138.7 683.2,138.7 683.2,122.5 651.6,122.5 651.6,104.1 689.9,104.1 
			689.9,86.8 631.6,86.8 		"/>
		<path class="st0" d="M749.7,130.4c0.1,3.2-0.1,6.3-0.8,9.4c-0.4,2.8-1.4,5.5-3,7.9c-1.5,2.2-3.4,4.2-5.6,5.6
			c-2.6,1.6-5.6,2.4-8.7,2.2c-2.9,0-5.7-0.6-8.3-1.9c-2.2-1.5-4.2-3.4-5.6-5.7c-2.8-5.3-4.2-11.3-4.1-17.3v-44h-19.9v44
			c0,5.5,0.7,10.9,2.2,16.2c1.3,4.9,3.6,9.5,6.8,13.5c3.1,4,7.1,7.2,11.7,9.4c5.6,2.4,11.6,3.5,17.7,3.4c6.4,0,12.4-1.1,16.9-3.4
			c4.5-2.1,8.5-5.2,11.7-9c3.1-4,5.4-8.6,6.8-13.5c1.6-5.4,2.3-11,2.3-16.6v-44h-19.9V130.4z"/>
		<polygon class="st0" points="800.1,155.2 800.1,86.8 780.2,86.8 780.2,172.5 780.2,172.5 841.5,172.5 841.5,155.2 		"/>
		<polygon class="st0" points="136.8,86.4 86.4,172.9 126.1,172.9 156.7,120.5 		"/>
		<polygon class="st0" points="177.4,172.9 187.2,172.9 182.3,164.5 		"/>
		<polygon class="st0" points="159.6,125.5 131.9,172.9 171.7,172.9 179.4,159.6 		"/>
		<polygon class="st0" points="182.3,154.6 202.2,120.5 182.3,86.4 162.5,120.5 180.9,152.2 		"/>
		<polygon class="st0" points="185.2,159.6 193,172.9 232.7,172.9 205.1,125.5 		"/>
		<polygon class="st0" points="208,120.5 238.5,172.9 278.2,172.9 227.8,86.4 		"/>
	</g>
	<rect class="st1" width="927.7" height="259.4"/>
</g>
</svg>
