<svg width="500" height="130" viewBox="0 0 500 130" fill="none" xmlns="http://www.w3.org/2000/svg">
<path d="M129.853 29.0761C121.317 30.5725 116.735 33.8301 113.913 48.8324V28.5847L86.1553 37.343V97.2468H116.704V65.7076C116.704 61.0493 119.714 56.927 124.137 55.5327L136.298 51.6944V28.5911C136.298 28.5911 131.455 28.7985 129.849 29.0793L129.853 29.0761Z" fill="#bfff5e"/>
<path d="M234.873 26.6003H234.87C223.575 26.6003 215.368 32.9943 211.484 40.7571V27.9819L181.799 37.3495V97.2502H212.347V56.7708C212.347 50.7469 215.616 48.5805 219.076 48.5805C222.536 48.5805 224.939 50.5045 224.939 55.5935V97.2502H255.487V51.87C255.487 34.8609 248.143 26.6003 234.873 26.6003Z" fill="#bfff5e"/>
<path d="M366.395 26.3675V28.585H358.506V49.8856H366.395V97.2535H396.943V49.8856H410.092V28.585H396.943V26.4249C396.943 22.4781 400.126 19.278 404.048 19.278H410.092V0.651123H391.96C377.839 0.651123 366.395 12.1629 366.395 26.3675Z" fill="#bfff5e"/>
<path d="M142.046 97.2534H172.594V40.2498L142.046 49.8854V97.2534Z" fill="#bfff5e"/>
<path d="M170.121 11.3268C167.107 8.82538 162.538 7.39917 157.348 7.39917C154.828 7.39917 152.445 7.74057 150.313 8.38507L149.759 8.55736C144.432 10.3282 140.812 14.0484 140.812 19.0066C140.812 19.5267 140.851 20.0308 140.93 20.5254C141.899 26.7279 148.832 30.6205 157.348 30.6205C166.604 30.6205 173.887 26.0834 173.887 19.0066C173.887 15.899 172.485 13.2827 170.121 11.3236V11.3268Z" fill="#bfff5e"/>
<path d="M300.232 0L269.684 9.63567V28.5848H261.795V49.8853H269.684V74.5967C269.684 87.1103 279.768 97.2501 292.203 97.2501H313.378V76.2143H306.445C303.017 76.2143 300.232 73.4193 300.232 69.9639V49.8821H313.378V28.5848H300.232V0Z" fill="#bfff5e"/>
<path d="M348.696 11.3268C345.682 8.82538 341.109 7.39917 335.919 7.39917C333.402 7.39917 331.016 7.74057 328.888 8.38507L328.333 8.55736C323.003 10.3282 319.387 14.0484 319.387 19.0066C319.387 19.5267 319.425 20.0308 319.505 20.5254C320.473 26.7279 327.406 30.6205 335.919 30.6205C345.178 30.6205 352.458 26.0834 352.458 19.0066C352.458 15.899 351.06 13.2827 348.696 11.3236V11.3268Z" fill="#bfff5e"/>
<path d="M321.257 97.2534H351.805V40.2498L321.257 49.8854V97.2534Z" fill="#bfff5e"/>
<path d="M467.135 28.5847L455.738 72.9822C455.174 74.7945 453.502 76.0324 451.609 76.0324C450.414 76.0324 449.334 75.5474 448.55 74.7594C447.767 73.9713 447.282 72.8833 447.282 71.6804V28.5847H417.648V69.8937C417.648 77.6915 419.783 85.349 423.399 90.3423C429.736 99.0814 443.902 100.441 451.944 93.3192L443.367 129.874H473.055L499.999 28.5879H467.135V28.5847Z" fill="#bfff5e"/>
<path d="M52.6757 2.57446H0V28.5844H48.7759C51.0253 28.5844 52.9943 30.2627 53.2014 32.5184C53.3065 33.6288 52.9911 34.6785 52.3857 35.5112C51.8537 36.2419 51.0954 36.8066 50.1937 37.0874L0 52.9192V97.2497H32.7116V69.1244C38.727 67.226 44.7519 65.3499 50.7417 63.3685C58.1207 60.9277 65.8757 58.9112 72.0631 53.9434C78.4862 48.781 81.9208 40.1663 81.9208 31.992C81.9208 15.7421 68.8292 2.57446 52.6757 2.57446Z" fill="#bfff5e"/>
</svg>
